
        <svg xmlns="http://www.w3.org/2000/svg" xmlns:xlink="http://www.w3.org/1999/xlink" version="1.1" width="3187.5" height="1157.1181083666602" viewBox="0 0 3187.5 1157.1181083666602">
			
			<g transform="scale(9.375) translate(10, 10)">
				<defs id="SvgjsDefs3841"/><g id="SvgjsG3842" featureKey="UFHKJ9-0" transform="matrix(1.7241534666538194,0,0,1.7241534666538194,-3.4492100545802598,-3.4715817291455036)" fill="#fff"><path xmlns="http://www.w3.org/2000/svg" d="M46,32A14,14,0,1,0,60,46,14.015,14.015,0,0,0,46,32ZM57,42v8a1,1,0,0,1-1,1H51v5a1,1,0,0,1-1,1H42a1,1,0,0,1-1-1V51H36a1,1,0,0,1-1-1V42a1,1,0,0,1,1-1h5V36a1,1,0,0,1,1-1h8a1,1,0,0,1,1,1v5h5A1,1,0,0,1,57,42Z"/><path xmlns="http://www.w3.org/2000/svg" d="M49,42V37H43v5a1,1,0,0,1-1,1H37v6h5a1,1,0,0,1,1,1v5h6V50a1,1,0,0,1,1-1h5V43H50A1,1,0,0,1,49,42Z"/><path xmlns="http://www.w3.org/2000/svg" d="M15.761,42.187a35.294,35.294,0,0,0-5,.843c-4.884,1.221-6.191,2.054-6.323,2.145a1,1,0,0,0-.142,1.532c.172.172,4.274,4.226,9.511,5.273a24.5,24.5,0,0,0,5.7.449c-.914.723-1.795,1.446-2.212,1.864a1.414,1.414,0,0,0-.189,1.93c.95,1.215,4.219,1.151,8.411-1.366L29,52.766V62h2V51.515A15.967,15.967,0,0,1,54.531,32.488,31.861,31.861,0,0,0,58,21.067a1,1,0,0,0-.291-.774A.97.97,0,0,0,56.934,20c-8.875.592-14.368,4.2-17.47,7.227a24.291,24.291,0,0,0,.526-8.371c-1.031-7.214-8.908-16.146-9.243-16.523a1.033,1.033,0,0,0-1.494,0c-.335.377-8.212,9.309-9.243,16.523a24.291,24.291,0,0,0,.526,8.371c-3.1-3.03-8.6-6.635-17.47-7.227a.973.973,0,0,0-.818.339,1,1,0,0,0-.228.855C2.137,21.781,4.82,34.623,15.761,42.187Z"/></g><g id="SvgjsG3843" featureKey="XAPJzK-0" transform="matrix(3.0997668884108043,0,0,3.0997668884108043,116.93083388534845,11.46339394818003)" fill="#fff"><path d="M9.2 12.98 l1.12 -6.56 c0.1 -0.62 2.44 -0.6 2.26 0.4 l-2.16 12.52 c-0.2 1 -2.14 0.7 -2.26 0.1 l-1.36 -6.96 l-1.38 6.96 c-0.1 0.6 -2.08 0.9 -2.26 -0.1 l-2.16 -12.52 c-0.18 -1 2.16 -1.02 2.26 -0.4 l1.12 6.56 l1.26 -6.54 c0.2 -0.6 2.1 -0.6 2.3 0 z M17.26 17.72 l2.86 0 c0.6 0 0.6 2.28 0 2.28 l-3.86 0 c-1.28 0 -1.28 0 -1.28 -1.08 l0 -11.84 c0 -1.08 0 -1.08 1.22 -1.1 l3.9 0.02 c0.6 0 0.6 2.28 0 2.28 l-2.84 0 l0 3.64 l2 0 c0.6 0 0.6 2.3 0 2.3 l-2 0 l0 3.5 z M25.66 17.72 l2.86 0 c0.6 0 0.6 2.28 0 2.28 l-3.86 0 c-1.28 0 -1.28 0 -1.28 -1.08 l0 -11.84 c0 -1.08 0 -1.08 1.22 -1.1 l3.9 0.02 c0.6 0 0.6 2.28 0 2.28 l-2.84 0 l0 3.64 l2 0 c0.6 0 0.6 2.3 0 2.3 l-2 0 l0 3.5 z M32.980000000000004 6 l2.7 0 c3.34 0 3.44 14 0.2 14 l-2.84 0 c-1.26 0 -1.26 0 -1.26 -1.1 l0 -11.8 c0 -1.08 0 -1.08 1.2 -1.1 z M34.86 8.26 l-0.02 0 c-0.8 0 -0.8 0 -0.8 0.76 l0 7.96 c0 0.74 0 0.74 0.84 0.74 l0.12 0 c1.3 0 1.24 -9.46 -0.14 -9.46 z M43.64 17.78 l3.52 0 c0.6 0 0.6 2.22 0 2.22 l-5.24 0 c-1 0 -1.54 -0.84 -1.16 -1.68 l4.48 -10.08 l-3.54 0 c-0.6 0 -0.6 -2.24 0 -2.24 l5.26 0 c1 0 1.54 0.86 1.16 1.68 z M52.92 17.740000000000002 l2.88 0 c0.4 0 0.4 2.26 0 2.26 l-4.02 0 c-1.14 0 -1.14 0 -1.14 -1.1 l0 -12.44 c0 -0.4 2.28 -0.4 2.28 0 l0 11.28 z M63.36 6.359999999999999 c0.22 -0.6 2.52 -0.42 2.1 0.58 c-0.92 2.2 -2.56 6.22 -2.5 6.12 l0 6.5 c0 0.6 -2.28 0.6 -2.28 0 l0 -6.5 l-2.52 -6.04 c-0.46 -1.1 1.82 -1.32 2.12 -0.58 l1.54 3.94 c0.42 -1.12 1.1 -2.82 1.54 -4.02 z"/></g>
			</g>
		</svg>
	